<mxfile host="app.diagrams.net" agent="Mozilla/5.0 (Windows NT 10.0; Win64; x64) AppleWebKit/537.36 (KHTML, like Gecko) Chrome/135.0.0.0 Safari/537.36 Edg/135.0.0.0" version="26.2.13">
  <diagram name="Page-1" id="4TsTQ3U4UacnWz6uLcBn">
    <mxGraphModel dx="2382" dy="877" grid="1" gridSize="10" guides="1" tooltips="1" connect="1" arrows="1" fold="1" page="1" pageScale="1" pageWidth="850" pageHeight="1100" background="none" math="0" shadow="0">
      <root>
        <mxCell id="0" />
        <mxCell id="1" parent="0" />
        <mxCell id="HP1eNjRkK17x56Gt-E1u-71" value="" style="shape=display;whiteSpace=wrap;html=1;rotation=-181;" vertex="1" parent="1">
          <mxGeometry x="-150.17" y="280.05" width="265" height="170" as="geometry" />
        </mxCell>
        <mxCell id="HP1eNjRkK17x56Gt-E1u-1" value="&lt;h1 style=&quot;margin-top: 0px;&quot;&gt;&lt;span style=&quot;background-color: transparent; color: light-dark(rgb(0, 0, 0), rgb(255, 255, 255));&quot;&gt;ChatBot with Data Ingestion Pipeline&lt;/span&gt;&lt;/h1&gt;&lt;div&gt;&lt;span style=&quot;background-color: transparent; color: light-dark(rgb(0, 0, 0), rgb(255, 255, 255));&quot;&gt;Chetan Londhe&amp;nbsp;&lt;/span&gt;&lt;/div&gt;&lt;div&gt;&lt;span style=&quot;background-color: transparent; color: light-dark(rgb(0, 0, 0), rgb(255, 255, 255));&quot;&gt;&lt;br&gt;&lt;/span&gt;&lt;/div&gt;&lt;div&gt;Chatbot over the stored context, and which provides updated data with data ingestions features&lt;/div&gt;" style="text;html=1;whiteSpace=wrap;overflow=hidden;rounded=0;" vertex="1" parent="1">
          <mxGeometry x="-290" y="110" width="340" height="140" as="geometry" />
        </mxCell>
        <mxCell id="HP1eNjRkK17x56Gt-E1u-2" value="" style="rounded=0;whiteSpace=wrap;html=1;gradientColor=none;dashed=1;" vertex="1" parent="1">
          <mxGeometry x="510" y="270" width="320" height="320" as="geometry" />
        </mxCell>
        <mxCell id="HP1eNjRkK17x56Gt-E1u-3" value="&lt;b&gt;&lt;font style=&quot;font-size: 13px;&quot;&gt;Data Ingestion Pipeline&lt;/font&gt;&lt;/b&gt;" style="text;html=1;align=center;verticalAlign=middle;whiteSpace=wrap;rounded=0;" vertex="1" parent="1">
          <mxGeometry x="165" y="300" width="275" height="30" as="geometry" />
        </mxCell>
        <mxCell id="HP1eNjRkK17x56Gt-E1u-4" value="" style="shape=note;whiteSpace=wrap;html=1;backgroundOutline=1;darkOpacity=0.05;" vertex="1" parent="1">
          <mxGeometry x="-250" y="300.5" width="50" height="70" as="geometry" />
        </mxCell>
        <mxCell id="HP1eNjRkK17x56Gt-E1u-5" value="" style="shape=note;whiteSpace=wrap;html=1;backgroundOutline=1;darkOpacity=0.05;" vertex="1" parent="1">
          <mxGeometry x="-240" y="310.5" width="50" height="70" as="geometry" />
        </mxCell>
        <mxCell id="HP1eNjRkK17x56Gt-E1u-6" value="" style="shape=note;whiteSpace=wrap;html=1;backgroundOutline=1;darkOpacity=0.05;" vertex="1" parent="1">
          <mxGeometry x="-225" y="320.5" width="50" height="70" as="geometry" />
        </mxCell>
        <mxCell id="HP1eNjRkK17x56Gt-E1u-20" style="edgeStyle=orthogonalEdgeStyle;rounded=0;orthogonalLoop=1;jettySize=auto;html=1;exitX=1;exitY=0.5;exitDx=0;exitDy=0;exitPerimeter=0;entryX=0;entryY=0.5;entryDx=0;entryDy=0;" edge="1" parent="1" source="HP1eNjRkK17x56Gt-E1u-8" target="HP1eNjRkK17x56Gt-E1u-19">
          <mxGeometry relative="1" as="geometry" />
        </mxCell>
        <mxCell id="HP1eNjRkK17x56Gt-E1u-8" value="Temp datastore" style="shape=cylinder3;whiteSpace=wrap;html=1;boundedLbl=1;backgroundOutline=1;size=15;" vertex="1" parent="1">
          <mxGeometry x="540" y="300" width="70" height="70" as="geometry" />
        </mxCell>
        <mxCell id="HP1eNjRkK17x56Gt-E1u-10" value="S3,&amp;nbsp;&lt;div&gt;local Server,GCP, etc&lt;/div&gt;&lt;div&gt;&lt;br&gt;&lt;/div&gt;" style="text;html=1;align=center;verticalAlign=middle;whiteSpace=wrap;rounded=0;" vertex="1" parent="1">
          <mxGeometry x="530" y="390" width="90" height="40" as="geometry" />
        </mxCell>
        <mxCell id="HP1eNjRkK17x56Gt-E1u-26" style="edgeStyle=orthogonalEdgeStyle;rounded=0;orthogonalLoop=1;jettySize=auto;html=1;" edge="1" parent="1" source="HP1eNjRkK17x56Gt-E1u-11" target="HP1eNjRkK17x56Gt-E1u-8">
          <mxGeometry relative="1" as="geometry">
            <Array as="points">
              <mxPoint x="320" y="330" />
              <mxPoint x="320" y="335" />
            </Array>
          </mxGeometry>
        </mxCell>
        <mxCell id="HP1eNjRkK17x56Gt-E1u-11" value="Data uploader&lt;div&gt;UI,API,etc&lt;/div&gt;" style="rounded=0;whiteSpace=wrap;html=1;" vertex="1" parent="1">
          <mxGeometry x="-102.47999999999999" y="295" width="150" height="70" as="geometry" />
        </mxCell>
        <mxCell id="HP1eNjRkK17x56Gt-E1u-15" value="PDF,Docs,Images,etc" style="text;html=1;align=center;verticalAlign=middle;whiteSpace=wrap;rounded=0;" vertex="1" parent="1">
          <mxGeometry x="-260" y="260.5" width="60" height="30" as="geometry" />
        </mxCell>
        <mxCell id="HP1eNjRkK17x56Gt-E1u-25" style="edgeStyle=orthogonalEdgeStyle;rounded=0;orthogonalLoop=1;jettySize=auto;html=1;" edge="1" parent="1" source="HP1eNjRkK17x56Gt-E1u-19" target="HP1eNjRkK17x56Gt-E1u-21">
          <mxGeometry relative="1" as="geometry" />
        </mxCell>
        <mxCell id="HP1eNjRkK17x56Gt-E1u-19" value="Text Extracter" style="triangle;whiteSpace=wrap;html=1;" vertex="1" parent="1">
          <mxGeometry x="660" y="290" width="100" height="110" as="geometry" />
        </mxCell>
        <mxCell id="HP1eNjRkK17x56Gt-E1u-37" style="edgeStyle=orthogonalEdgeStyle;rounded=0;orthogonalLoop=1;jettySize=auto;html=1;entryX=0.5;entryY=0;entryDx=0;entryDy=0;" edge="1" parent="1" source="HP1eNjRkK17x56Gt-E1u-21" target="HP1eNjRkK17x56Gt-E1u-34">
          <mxGeometry relative="1" as="geometry" />
        </mxCell>
        <mxCell id="HP1eNjRkK17x56Gt-E1u-21" value="Chunking&lt;div&gt;&lt;br&gt;&lt;div&gt;Fixed-Lengths Chunks, Sentence-based, etc&lt;/div&gt;&lt;/div&gt;" style="shape=trapezoid;perimeter=trapezoidPerimeter;whiteSpace=wrap;html=1;fixedSize=1;" vertex="1" parent="1">
          <mxGeometry x="660" y="410" width="120" height="80" as="geometry" />
        </mxCell>
        <mxCell id="HP1eNjRkK17x56Gt-E1u-27" style="edgeStyle=orthogonalEdgeStyle;rounded=0;orthogonalLoop=1;jettySize=auto;html=1;entryX=0;entryY=0.5;entryDx=0;entryDy=0;" edge="1" parent="1" source="HP1eNjRkK17x56Gt-E1u-6" target="HP1eNjRkK17x56Gt-E1u-11">
          <mxGeometry relative="1" as="geometry" />
        </mxCell>
        <mxCell id="HP1eNjRkK17x56Gt-E1u-29" value="" style="rounded=0;whiteSpace=wrap;html=1;dashed=1;" vertex="1" parent="1">
          <mxGeometry x="390" y="682.5" width="340" height="287.5" as="geometry" />
        </mxCell>
        <mxCell id="HP1eNjRkK17x56Gt-E1u-31" value="Vector Manager" style="text;html=1;align=center;verticalAlign=middle;whiteSpace=wrap;rounded=0;" vertex="1" parent="1">
          <mxGeometry x="585" y="687" width="150" height="30" as="geometry" />
        </mxCell>
        <mxCell id="HP1eNjRkK17x56Gt-E1u-32" value="Vector DB&lt;div&gt;&lt;br&gt;&lt;/div&gt;&lt;div&gt;FAISS,Pinecone,&lt;/div&gt;" style="shape=cylinder3;whiteSpace=wrap;html=1;boundedLbl=1;backgroundOutline=1;size=15;" vertex="1" parent="1">
          <mxGeometry x="585" y="812.5" width="120" height="150" as="geometry" />
        </mxCell>
        <mxCell id="HP1eNjRkK17x56Gt-E1u-44" style="edgeStyle=orthogonalEdgeStyle;rounded=0;orthogonalLoop=1;jettySize=auto;html=1;exitX=0.25;exitY=1;exitDx=0;exitDy=0;" edge="1" parent="1" source="HP1eNjRkK17x56Gt-E1u-34" target="HP1eNjRkK17x56Gt-E1u-38">
          <mxGeometry relative="1" as="geometry" />
        </mxCell>
        <mxCell id="HP1eNjRkK17x56Gt-E1u-34" value="Queue Manager" style="rounded=0;whiteSpace=wrap;html=1;" vertex="1" parent="1">
          <mxGeometry x="570" y="530" width="210" height="40" as="geometry" />
        </mxCell>
        <mxCell id="HP1eNjRkK17x56Gt-E1u-41" style="edgeStyle=orthogonalEdgeStyle;rounded=0;orthogonalLoop=1;jettySize=auto;html=1;exitX=0;exitY=0.5;exitDx=0;exitDy=0;entryX=0;entryY=0.5;entryDx=0;entryDy=0;" edge="1" parent="1" source="HP1eNjRkK17x56Gt-E1u-38" target="HP1eNjRkK17x56Gt-E1u-40">
          <mxGeometry relative="1" as="geometry">
            <mxPoint x="585" y="732.5000000000002" as="sourcePoint" />
            <mxPoint x="490" y="805.0000000000002" as="targetPoint" />
          </mxGeometry>
        </mxCell>
        <mxCell id="HP1eNjRkK17x56Gt-E1u-38" value="Queue Manager" style="rounded=0;whiteSpace=wrap;html=1;" vertex="1" parent="1">
          <mxGeometry x="510" y="742.5" width="150" height="40" as="geometry" />
        </mxCell>
        <mxCell id="HP1eNjRkK17x56Gt-E1u-49" style="edgeStyle=orthogonalEdgeStyle;rounded=0;orthogonalLoop=1;jettySize=auto;html=1;exitX=1;exitY=0.5;exitDx=0;exitDy=0;entryX=0.5;entryY=0;entryDx=0;entryDy=0;" edge="1" parent="1" source="HP1eNjRkK17x56Gt-E1u-40" target="HP1eNjRkK17x56Gt-E1u-47">
          <mxGeometry relative="1" as="geometry" />
        </mxCell>
        <mxCell id="HP1eNjRkK17x56Gt-E1u-40" value="Embedding&amp;nbsp;&lt;div&gt;Generator&lt;/div&gt;" style="triangle;whiteSpace=wrap;html=1;" vertex="1" parent="1">
          <mxGeometry x="420" y="752.5" width="110" height="105" as="geometry" />
        </mxCell>
        <mxCell id="HP1eNjRkK17x56Gt-E1u-47" value="Embeddings Loader and Extractor" style="shape=process;whiteSpace=wrap;html=1;backgroundOutline=1;" vertex="1" parent="1">
          <mxGeometry x="440" y="887.5" width="100" height="60" as="geometry" />
        </mxCell>
        <mxCell id="HP1eNjRkK17x56Gt-E1u-48" style="edgeStyle=orthogonalEdgeStyle;rounded=0;orthogonalLoop=1;jettySize=auto;html=1;exitX=0.5;exitY=1;exitDx=0;exitDy=0;" edge="1" parent="1" source="HP1eNjRkK17x56Gt-E1u-47" target="HP1eNjRkK17x56Gt-E1u-47">
          <mxGeometry relative="1" as="geometry">
            <mxPoint x="555" y="952.5000000000002" as="sourcePoint" />
            <mxPoint x="555" y="952.5000000000002" as="targetPoint" />
          </mxGeometry>
        </mxCell>
        <mxCell id="HP1eNjRkK17x56Gt-E1u-53" value="" style="endArrow=classic;startArrow=classic;html=1;rounded=0;entryX=0;entryY=0.5;entryDx=0;entryDy=0;entryPerimeter=0;exitX=1;exitY=0.5;exitDx=0;exitDy=0;" edge="1" parent="1" source="HP1eNjRkK17x56Gt-E1u-47" target="HP1eNjRkK17x56Gt-E1u-32">
          <mxGeometry width="50" height="50" relative="1" as="geometry">
            <mxPoint x="635" y="992.5" as="sourcePoint" />
            <mxPoint x="685" y="942.5" as="targetPoint" />
          </mxGeometry>
        </mxCell>
        <mxCell id="HP1eNjRkK17x56Gt-E1u-56" value="" style="whiteSpace=wrap;html=1;aspect=fixed;dashed=1;" vertex="1" parent="1">
          <mxGeometry x="23.990000000000002" y="647.5" width="310" height="310" as="geometry" />
        </mxCell>
        <mxCell id="HP1eNjRkK17x56Gt-E1u-93" style="edgeStyle=orthogonalEdgeStyle;rounded=0;orthogonalLoop=1;jettySize=auto;html=1;" edge="1" parent="1" source="HP1eNjRkK17x56Gt-E1u-57" target="HP1eNjRkK17x56Gt-E1u-91">
          <mxGeometry relative="1" as="geometry" />
        </mxCell>
        <mxCell id="HP1eNjRkK17x56Gt-E1u-57" value="Data Retrival" style="rounded=0;whiteSpace=wrap;html=1;" vertex="1" parent="1">
          <mxGeometry x="70" y="887.5" width="120" height="60" as="geometry" />
        </mxCell>
        <mxCell id="HP1eNjRkK17x56Gt-E1u-59" value="" style="rounded=0;whiteSpace=wrap;html=1;dashed=1;" vertex="1" parent="1">
          <mxGeometry x="140" y="410" width="300" height="190" as="geometry" />
        </mxCell>
        <mxCell id="HP1eNjRkK17x56Gt-E1u-88" style="edgeStyle=orthogonalEdgeStyle;rounded=0;orthogonalLoop=1;jettySize=auto;html=1;exitX=1;exitY=0.5;exitDx=0;exitDy=0;entryX=0.5;entryY=0;entryDx=0;entryDy=0;" edge="1" parent="1" source="HP1eNjRkK17x56Gt-E1u-60" target="HP1eNjRkK17x56Gt-E1u-57">
          <mxGeometry relative="1" as="geometry" />
        </mxCell>
        <mxCell id="HP1eNjRkK17x56Gt-E1u-98" style="edgeStyle=orthogonalEdgeStyle;rounded=0;orthogonalLoop=1;jettySize=auto;html=1;exitX=0.5;exitY=0;exitDx=0;exitDy=0;" edge="1" parent="1" source="HP1eNjRkK17x56Gt-E1u-60" target="HP1eNjRkK17x56Gt-E1u-62">
          <mxGeometry relative="1" as="geometry" />
        </mxCell>
        <mxCell id="HP1eNjRkK17x56Gt-E1u-62" value="Context History" style="shape=cylinder3;whiteSpace=wrap;html=1;boundedLbl=1;backgroundOutline=1;size=15;" vertex="1" parent="1">
          <mxGeometry x="240" y="752.5" width="80" height="100" as="geometry" />
        </mxCell>
        <mxCell id="HP1eNjRkK17x56Gt-E1u-60" value="Embedding Generator" style="triangle;whiteSpace=wrap;html=1;rotation=0;" vertex="1" parent="1">
          <mxGeometry x="60" y="742.5" width="110" height="110" as="geometry" />
        </mxCell>
        <mxCell id="HP1eNjRkK17x56Gt-E1u-63" value="Context Generator" style="text;html=1;align=center;verticalAlign=middle;whiteSpace=wrap;rounded=0;" vertex="1" parent="1">
          <mxGeometry x="23.99" y="652.5" width="120" height="30" as="geometry" />
        </mxCell>
        <mxCell id="HP1eNjRkK17x56Gt-E1u-119" style="edgeStyle=orthogonalEdgeStyle;rounded=0;orthogonalLoop=1;jettySize=auto;html=1;exitX=0.25;exitY=0;exitDx=0;exitDy=0;entryX=0.25;entryY=1;entryDx=0;entryDy=0;" edge="1" parent="1" source="HP1eNjRkK17x56Gt-E1u-66" target="HP1eNjRkK17x56Gt-E1u-75">
          <mxGeometry relative="1" as="geometry" />
        </mxCell>
        <mxCell id="HP1eNjRkK17x56Gt-E1u-66" value="" style="rounded=0;whiteSpace=wrap;html=1;" vertex="1" parent="1">
          <mxGeometry x="270" y="515" width="160" height="71" as="geometry" />
        </mxCell>
        <mxCell id="HP1eNjRkK17x56Gt-E1u-86" style="edgeStyle=orthogonalEdgeStyle;rounded=0;orthogonalLoop=1;jettySize=auto;html=1;exitX=0;exitY=0.25;exitDx=0;exitDy=0;entryX=1;entryY=0.5;entryDx=0;entryDy=0;" edge="1" parent="1" source="HP1eNjRkK17x56Gt-E1u-68" target="HP1eNjRkK17x56Gt-E1u-80">
          <mxGeometry relative="1" as="geometry" />
        </mxCell>
        <mxCell id="HP1eNjRkK17x56Gt-E1u-118" style="edgeStyle=orthogonalEdgeStyle;rounded=0;orthogonalLoop=1;jettySize=auto;html=1;exitX=1;exitY=0.5;exitDx=0;exitDy=0;entryX=0;entryY=0.5;entryDx=0;entryDy=0;" edge="1" parent="1" source="HP1eNjRkK17x56Gt-E1u-68" target="HP1eNjRkK17x56Gt-E1u-66">
          <mxGeometry relative="1" as="geometry" />
        </mxCell>
        <mxCell id="HP1eNjRkK17x56Gt-E1u-128" style="edgeStyle=orthogonalEdgeStyle;rounded=0;orthogonalLoop=1;jettySize=auto;html=1;exitX=0.25;exitY=1;exitDx=0;exitDy=0;entryX=0;entryY=0.5;entryDx=0;entryDy=0;" edge="1" parent="1" source="HP1eNjRkK17x56Gt-E1u-68" target="HP1eNjRkK17x56Gt-E1u-60">
          <mxGeometry relative="1" as="geometry">
            <Array as="points">
              <mxPoint x="178" y="620" />
              <mxPoint y="620" />
              <mxPoint y="797" />
            </Array>
          </mxGeometry>
        </mxCell>
        <mxCell id="HP1eNjRkK17x56Gt-E1u-132" style="edgeStyle=orthogonalEdgeStyle;rounded=0;orthogonalLoop=1;jettySize=auto;html=1;exitX=0;exitY=0.5;exitDx=0;exitDy=0;entryX=0.25;entryY=0;entryDx=0;entryDy=0;" edge="1" parent="1" source="HP1eNjRkK17x56Gt-E1u-68" target="HP1eNjRkK17x56Gt-E1u-110">
          <mxGeometry relative="1" as="geometry" />
        </mxCell>
        <mxCell id="HP1eNjRkK17x56Gt-E1u-68" value="LLM Manager&lt;div&gt;&lt;br&gt;&lt;/div&gt;&lt;div&gt;API&lt;/div&gt;" style="rounded=0;whiteSpace=wrap;html=1;" vertex="1" parent="1">
          <mxGeometry x="160" y="430" width="70" height="150" as="geometry" />
        </mxCell>
        <mxCell id="HP1eNjRkK17x56Gt-E1u-73" value="LLM Handler" style="text;html=1;align=center;verticalAlign=middle;whiteSpace=wrap;rounded=0;" vertex="1" parent="1">
          <mxGeometry x="320" y="535.5" width="60" height="30" as="geometry" />
        </mxCell>
        <mxCell id="HP1eNjRkK17x56Gt-E1u-120" style="edgeStyle=orthogonalEdgeStyle;rounded=0;orthogonalLoop=1;jettySize=auto;html=1;exitX=0.75;exitY=1;exitDx=0;exitDy=0;entryX=0.75;entryY=0;entryDx=0;entryDy=0;" edge="1" parent="1" source="HP1eNjRkK17x56Gt-E1u-75" target="HP1eNjRkK17x56Gt-E1u-66">
          <mxGeometry relative="1" as="geometry" />
        </mxCell>
        <mxCell id="HP1eNjRkK17x56Gt-E1u-75" value="LLM,&lt;div&gt;&lt;br&gt;&lt;/div&gt;&lt;div&gt;OpenAI,Gemini,etc&lt;/div&gt;" style="rounded=0;whiteSpace=wrap;html=1;" vertex="1" parent="1">
          <mxGeometry x="295" y="430" width="120" height="60" as="geometry" />
        </mxCell>
        <mxCell id="HP1eNjRkK17x56Gt-E1u-78" value="" style="sketch=0;html=1;aspect=fixed;strokeColor=none;shadow=0;fillColor=#3B8DF1;verticalAlign=top;labelPosition=center;verticalLabelPosition=bottom;shape=mxgraph.gcp2.database_uploading" vertex="1" parent="1">
          <mxGeometry x="-96.85000000000002" y="330" width="35.71" height="30" as="geometry" />
        </mxCell>
        <mxCell id="HP1eNjRkK17x56Gt-E1u-80" value="" style="rounded=0;whiteSpace=wrap;html=1;" vertex="1" parent="1">
          <mxGeometry x="-100" y="375" width="150" height="70" as="geometry" />
        </mxCell>
        <mxCell id="HP1eNjRkK17x56Gt-E1u-77" value="Cloud&#xa;Monitoring" style="sketch=0;html=1;verticalAlign=top;labelPosition=center;verticalLabelPosition=bottom;align=center;spacingTop=-6;fontSize=11;fontStyle=1;fontColor=#999999;shape=image;aspect=fixed;imageAspect=0;image=data:image/svg+xml,PHN2ZyB4bWxucz0iaHR0cDovL3d3dy53My5vcmcvMjAwMC9zdmciIHhtbG5zOnY9Imh0dHBzOi8vdmVjdGEuaW8vbmFubyIgd2lkdGg9IjIwIiBoZWlnaHQ9IjEzLjUyOTk5OTczMjk3MTE5MSIgdmlld0JveD0iLTIuOTMyMDk3ODk3ODEyMDE0ZS05IC01LjI1ODAxNTA0MTgzNzk1NmUtMTUgMjAgMTMuNTI5OTk5NzMyOTcxMTkxIj4mI3hhOwk8c3R5bGUgdHlwZT0idGV4dC9jc3MiPiYjeGE7CS5zdDB7ZmlsbDojNDI4NWY0O30mI3hhOwkuc3Qxe2ZpbGw6IzY2OWRmNjt9JiN4YTsJPC9zdHlsZT4mI3hhOwk8cGF0aCBjbGFzcz0ic3QxIiBkPSJNOC44MyAxMC41OGgyLjMzdjIuNjRIOC44M3oiLz4mI3hhOwk8cGF0aCBjbGFzcz0ic3QwIiBkPSJNMTYuNDggOC42MWEuNTYuNTYgMCAwIDEtLjQtLjE3TDEyIDQuMjEgOS4yNiA3LjFhLjU3LjU3IDAgMCAxLS43Ni4wNUw2LjQyIDUuNDdsLTIuMiAyLjkyYS41Ni41NiAwIDAgMS0uNDUuMjJIMHYxLjcxYS43NS43NSAwIDAgMCAuNzQuNzVoMTguNTJhLjc1Ljc1IDAgMCAwIC43NC0uNzVWOC42MXoiLz4mI3hhOwk8cGF0aCBjbGFzcz0ic3QxIiBkPSJNMy41IDcuNWwyLjM4LTMuMTZhLjU1LjU1IDAgMCAxIC4zNy0uMjIuNjMuNjMgMCAwIDEgLjQyLjEybDIuMTIgMS43MiAyLjgtMi45NGEuNTQuNTQgMCAwIDEgLjQtLjE3aDBhLjU0LjU0IDAgMCAxIC40LjE3bDQuMzMgNC40OEgyMFYuNzRhLjc0Ljc0IDAgMCAwLS43NC0uNzRILjc0QS43NC43NCAwIDAgMCAwIC43NHY2LjgxeiIvPiYjeGE7CTxyZWN0IGNsYXNzPSJzdDAiIHg9IjYuNjciIHk9IjEyLjkyIiB3aWR0aD0iNi42NyIgaGVpZ2h0PSIuNjEiIHJ4PSIuMyIvPiYjeGE7PC9zdmc+;" vertex="1" parent="1">
          <mxGeometry x="-76.00999999999999" y="395.5" width="27.52" height="19" as="geometry" />
        </mxCell>
        <mxCell id="HP1eNjRkK17x56Gt-E1u-84" value="Data Analysis" style="text;html=1;align=center;verticalAlign=middle;whiteSpace=wrap;rounded=0;" vertex="1" parent="1">
          <mxGeometry x="-36.01" y="390.5" width="60" height="30" as="geometry" />
        </mxCell>
        <mxCell id="HP1eNjRkK17x56Gt-E1u-117" style="edgeStyle=orthogonalEdgeStyle;rounded=0;orthogonalLoop=1;jettySize=auto;html=1;entryX=0.5;entryY=1;entryDx=0;entryDy=0;" edge="1" parent="1" source="HP1eNjRkK17x56Gt-E1u-91" target="HP1eNjRkK17x56Gt-E1u-68">
          <mxGeometry relative="1" as="geometry" />
        </mxCell>
        <mxCell id="HP1eNjRkK17x56Gt-E1u-91" value="" style="verticalLabelPosition=bottom;verticalAlign=top;html=1;shape=mxgraph.flowchart.or;" vertex="1" parent="1">
          <mxGeometry x="200" y="678" width="50" height="47" as="geometry" />
        </mxCell>
        <mxCell id="HP1eNjRkK17x56Gt-E1u-94" style="edgeStyle=orthogonalEdgeStyle;rounded=0;orthogonalLoop=1;jettySize=auto;html=1;entryX=1;entryY=0.5;entryDx=0;entryDy=0;entryPerimeter=0;" edge="1" parent="1" source="HP1eNjRkK17x56Gt-E1u-62" target="HP1eNjRkK17x56Gt-E1u-91">
          <mxGeometry relative="1" as="geometry" />
        </mxCell>
        <mxCell id="HP1eNjRkK17x56Gt-E1u-95" value="" style="image;aspect=fixed;perimeter=ellipsePerimeter;html=1;align=center;shadow=0;dashed=0;fontColor=#4277BB;labelBackgroundColor=default;fontSize=12;spacingTop=3;image=img/lib/ibm/users/user.svg;" vertex="1" parent="1">
          <mxGeometry x="-265" y="767.5" width="60" height="60" as="geometry" />
        </mxCell>
        <mxCell id="HP1eNjRkK17x56Gt-E1u-106" value="" style="endArrow=classic;startArrow=classic;html=1;rounded=0;entryX=0;entryY=0.75;entryDx=0;entryDy=0;exitX=1;exitY=0.75;exitDx=0;exitDy=0;" edge="1" parent="1" source="HP1eNjRkK17x56Gt-E1u-57" target="HP1eNjRkK17x56Gt-E1u-47">
          <mxGeometry width="50" height="50" relative="1" as="geometry">
            <mxPoint x="250" y="937.5" as="sourcePoint" />
            <mxPoint x="300" y="887.5" as="targetPoint" />
          </mxGeometry>
        </mxCell>
        <mxCell id="HP1eNjRkK17x56Gt-E1u-127" style="edgeStyle=orthogonalEdgeStyle;rounded=0;orthogonalLoop=1;jettySize=auto;html=1;exitX=0.75;exitY=0;exitDx=0;exitDy=0;entryX=0;entryY=0.75;entryDx=0;entryDy=0;" edge="1" parent="1" source="HP1eNjRkK17x56Gt-E1u-110" target="HP1eNjRkK17x56Gt-E1u-68">
          <mxGeometry relative="1" as="geometry" />
        </mxCell>
        <mxCell id="HP1eNjRkK17x56Gt-E1u-110" value="" style="rounded=0;whiteSpace=wrap;html=1;" vertex="1" parent="1">
          <mxGeometry x="-149.56" y="733" width="91.14" height="124.5" as="geometry" />
        </mxCell>
        <mxCell id="HP1eNjRkK17x56Gt-E1u-107" value="" style="image;aspect=fixed;perimeter=ellipsePerimeter;html=1;align=center;shadow=0;dashed=0;fontColor=#4277BB;labelBackgroundColor=default;fontSize=12;spacingTop=3;image=img/lib/ibm/data/conversation_trained_deployed.svg;" vertex="1" parent="1">
          <mxGeometry x="-133.99" y="747.5" width="60" height="60" as="geometry" />
        </mxCell>
        <mxCell id="HP1eNjRkK17x56Gt-E1u-111" value="Chatbot" style="text;html=1;align=center;verticalAlign=middle;whiteSpace=wrap;rounded=0;" vertex="1" parent="1">
          <mxGeometry x="-134" y="823" width="60" height="30" as="geometry" />
        </mxCell>
        <mxCell id="HP1eNjRkK17x56Gt-E1u-113" value="" style="shape=flexArrow;endArrow=classic;startArrow=classic;html=1;rounded=0;" edge="1" parent="1">
          <mxGeometry width="100" height="100" relative="1" as="geometry">
            <mxPoint x="-209.56" y="796.73" as="sourcePoint" />
            <mxPoint x="-149.56" y="796.73" as="targetPoint" />
          </mxGeometry>
        </mxCell>
        <mxCell id="HP1eNjRkK17x56Gt-E1u-122" style="edgeStyle=orthogonalEdgeStyle;rounded=0;orthogonalLoop=1;jettySize=auto;html=1;exitX=0;exitY=0.5;exitDx=0;exitDy=0;entryX=1;entryY=0.5;entryDx=0;entryDy=0;entryPerimeter=0;" edge="1" parent="1" source="HP1eNjRkK17x56Gt-E1u-68" target="HP1eNjRkK17x56Gt-E1u-62">
          <mxGeometry relative="1" as="geometry">
            <Array as="points">
              <mxPoint x="70" y="505" />
              <mxPoint x="70" y="640" />
              <mxPoint x="340" y="640" />
              <mxPoint x="340" y="803" />
            </Array>
          </mxGeometry>
        </mxCell>
        <mxCell id="HP1eNjRkK17x56Gt-E1u-123" value="LLM Response" style="text;html=1;align=center;verticalAlign=middle;whiteSpace=wrap;rounded=0;" vertex="1" parent="1">
          <mxGeometry x="70" y="490" width="60" height="30" as="geometry" />
        </mxCell>
        <mxCell id="HP1eNjRkK17x56Gt-E1u-126" value="Contextual Prompt + Context History + Retrieved Data" style="text;html=1;align=center;verticalAlign=middle;whiteSpace=wrap;rounded=0;" vertex="1" parent="1">
          <mxGeometry x="144" y="687" width="60" height="30" as="geometry" />
        </mxCell>
        <mxCell id="HP1eNjRkK17x56Gt-E1u-129" value="Data Ingestion Manager" style="text;html=1;align=center;verticalAlign=middle;whiteSpace=wrap;rounded=0;" vertex="1" parent="1">
          <mxGeometry x="720" y="280" width="100" height="20" as="geometry" />
        </mxCell>
      </root>
    </mxGraphModel>
  </diagram>
</mxfile>
